<svg width="36" height="36" viewBox="0 0 36 36" fill="none" xmlns="http://www.w3.org/2000/svg">
<path d="M35 28.625V30.75C35 31.8772 34.5522 32.9582 33.7552 33.7552C32.9582 34.5522 31.8772 35 30.75 35H10.0015C9.21211 35 8.4383 34.7801 7.76683 34.365C7.09536 33.9498 6.55278 33.3559 6.19991 32.6497L1.36342 22.9767C1.10113 22.4525 0.977219 21.87 1.00344 21.2844C1.02967 20.6989 1.20516 20.1297 1.51326 19.631C1.82135 19.1324 2.25181 18.7208 2.76376 18.4353C3.27571 18.1498 3.85213 18 4.43829 18H5.25004C5.90983 18 6.56056 18.1536 7.15069 18.4487C7.74083 18.7438 8.60413 18.9722 9 19.5L13.75 24V5.25C13.75 4.12283 14.1978 3.04183 14.9948 2.2448C15.7919 1.44777 16.8729 1 18 1C19.1272 1 20.2082 1.44777 21.0052 2.2448C21.8022 3.04183 22.25 4.12283 22.25 5.25V18C22.25 18.5636 22.4739 19.1041 22.8724 19.5026C23.2709 19.9011 23.8114 20.125 24.375 20.125H26.5C28.7543 20.125 30.9164 21.0205 32.5104 22.6146C34.1045 24.2087 35 26.3707 35 28.625Z" fill="white" stroke="url(#paint0_linear_4106_12077)" stroke-width="2" stroke-linecap="round" stroke-linejoin="round"/>
<defs>
<linearGradient id="paint0_linear_4106_12077" x1="18" y1="1" x2="18" y2="35" gradientUnits="userSpaceOnUse">
<stop stop-color="#2F3DFF"/>
<stop offset="1" stop-color="#6F21FF"/>
</linearGradient>
</defs>
</svg>
